<svg width="83" height="29" viewBox="0 0 83 29" fill="none" xmlns="http://www.w3.org/2000/svg">
<rect width="83" height="29" rx="10" fill="#252525"/>
<path d="M12.7246 15.6426V13.9609C12.7246 13.7305 12.6797 13.5137 12.5898 13.3105C12.5039 13.1035 12.3848 12.9238 12.2324 12.7715C12.0801 12.6191 11.9004 12.5 11.6934 12.4141C11.4902 12.3242 11.2734 12.2793 11.043 12.2793C10.8125 12.2793 10.5938 12.3242 10.3867 12.4141C10.1836 12.5 10.0059 12.6191 9.85352 12.7715C9.70117 12.9238 9.58008 13.1035 9.49023 13.3105C9.4043 13.5137 9.36133 13.7305 9.36133 13.9609V15.6426H12.7246ZM14.4062 19H12.7246V17.3184H9.36133V19H7.68555V13.9609C7.68555 13.4961 7.77344 13.0605 7.94922 12.6543C8.125 12.2441 8.36328 11.8867 8.66406 11.582C8.96875 11.2773 9.32422 11.0371 9.73047 10.8613C10.1406 10.6855 10.5781 10.5977 11.043 10.5977C11.5078 10.5977 11.9434 10.6855 12.3496 10.8613C12.7598 11.0371 13.1172 11.2773 13.4219 11.582C13.7266 11.8867 13.9668 12.2441 14.1426 12.6543C14.3184 13.0605 14.4062 13.4961 14.4062 13.9609V19ZM20.5938 19H15.3613L18.0039 14.3301H15.3613V12.7363H20.5938L17.9512 17.4062H20.5938V19ZM23.3711 11.0195C23.3711 11.168 23.3418 11.3066 23.2832 11.4355C23.2285 11.5645 23.1523 11.6777 23.0547 11.7754C22.957 11.8691 22.8418 11.9453 22.709 12.0039C22.5801 12.0586 22.4414 12.0859 22.293 12.0859C22.1445 12.0859 22.0039 12.0586 21.8711 12.0039C21.7422 11.9453 21.6289 11.8691 21.5312 11.7754C21.4375 11.6777 21.3613 11.5645 21.3027 11.4355C21.248 11.3066 21.2207 11.168 21.2207 11.0195C21.2207 10.875 21.248 10.7383 21.3027 10.6094C21.3613 10.4766 21.4375 10.3633 21.5312 10.2695C21.6289 10.1719 21.7422 10.0957 21.8711 10.041C22.0039 9.98242 22.1445 9.95312 22.293 9.95312C22.4414 9.95312 22.5801 9.98242 22.709 10.041C22.8418 10.0957 22.957 10.1719 23.0547 10.2695C23.1523 10.3633 23.2285 10.4766 23.2832 10.6094C23.3418 10.7383 23.3711 10.875 23.3711 11.0195ZM23.0957 19H21.4844V12.7246H23.0957V19ZM32.3008 19H30.707V15.0156C30.707 14.9062 30.6855 14.8027 30.6426 14.7051C30.6035 14.6074 30.5469 14.5215 30.4727 14.4473C30.3984 14.373 30.3125 14.3164 30.2148 14.2773C30.1172 14.2344 30.0137 14.2129 29.9043 14.2129C29.7949 14.2129 29.6914 14.2344 29.5938 14.2773C29.5 14.3164 29.416 14.373 29.3418 14.4473C29.2715 14.5215 29.2148 14.6074 29.1719 14.7051C29.1328 14.8027 29.1133 14.9062 29.1133 15.0156V19H27.5137V15.0156C27.5137 14.9062 27.4922 14.8027 27.4492 14.7051C27.4102 14.6074 27.3535 14.5215 27.2793 14.4473C27.2051 14.373 27.1191 14.3164 27.0215 14.2773C26.9238 14.2344 26.8203 14.2129 26.7109 14.2129C26.6016 14.2129 26.498 14.2344 26.4004 14.2773C26.3066 14.3164 26.2227 14.373 26.1484 14.4473C26.0781 14.5215 26.0215 14.6074 25.9785 14.7051C25.9395 14.8027 25.9199 14.9062 25.9199 15.0156V19H24.3203V12.7246H24.707L25.1406 13.2051C25.3633 13.0176 25.6074 12.873 25.873 12.7715C26.1426 12.666 26.4219 12.6133 26.7109 12.6133C27.0039 12.6133 27.2891 12.668 27.5664 12.7773C27.8477 12.8867 28.0938 13.0762 28.3047 13.3457C28.4023 13.2129 28.5137 13.0996 28.6387 13.0059C28.7637 12.9121 28.8945 12.8359 29.0312 12.7773C29.1719 12.7188 29.3164 12.6777 29.4648 12.6543C29.6133 12.627 29.7598 12.6133 29.9043 12.6133C30.2363 12.6133 30.5469 12.6758 30.8359 12.8008C31.1289 12.9258 31.3828 13.0977 31.5977 13.3164C31.8164 13.5312 31.9883 13.7852 32.1133 14.0781C32.2383 14.3711 32.3008 14.6836 32.3008 15.0156V19ZM39.5371 15.8066C39.5371 16.2754 39.4531 16.7129 39.2852 17.1191C39.1172 17.5215 38.8887 17.8711 38.5996 18.168C38.3105 18.4609 37.9707 18.6934 37.5801 18.8652C37.1934 19.0332 36.7773 19.1172 36.332 19.1172C35.8906 19.1172 35.4746 19.0332 35.084 18.8652C34.6973 18.6934 34.3574 18.4609 34.0645 18.168C33.7754 17.8711 33.5469 17.5215 33.3789 17.1191C33.2109 16.7129 33.127 16.2754 33.127 15.8066C33.127 15.3301 33.2109 14.8887 33.3789 14.4824C33.5469 14.0762 33.7754 13.7266 34.0645 13.4336C34.3574 13.1367 34.6973 12.9043 35.084 12.7363C35.4746 12.5684 35.8906 12.4844 36.332 12.4844C36.7773 12.4844 37.1934 12.5645 37.5801 12.7246C37.9707 12.8809 38.3105 13.1055 38.5996 13.3984C38.8887 13.6875 39.1172 14.0371 39.2852 14.4473C39.4531 14.8535 39.5371 15.3066 39.5371 15.8066ZM37.9258 15.8066C37.9258 15.5488 37.8828 15.3164 37.7969 15.1094C37.7148 14.8984 37.6016 14.7188 37.457 14.5703C37.3125 14.418 37.1426 14.3027 36.9473 14.2246C36.7559 14.1426 36.5508 14.1016 36.332 14.1016C36.1133 14.1016 35.9062 14.1426 35.7109 14.2246C35.5195 14.3027 35.3516 14.418 35.207 14.5703C35.0664 14.7188 34.9551 14.8984 34.873 15.1094C34.791 15.3164 34.75 15.5488 34.75 15.8066C34.75 16.0488 34.791 16.2734 34.873 16.4805C34.9551 16.6875 35.0664 16.8672 35.207 17.0195C35.3516 17.1719 35.5195 17.293 35.7109 17.3828C35.9062 17.4688 36.1133 17.5117 36.332 17.5117C36.5508 17.5117 36.7559 17.4707 36.9473 17.3887C37.1426 17.3066 37.3125 17.1914 37.457 17.043C37.6016 16.8945 37.7148 16.7148 37.7969 16.5039C37.8828 16.293 37.9258 16.0605 37.9258 15.8066ZM42.0156 19L39.625 12.7246H41.4473L42.8184 16.6387L44.1836 12.7246H46.0117L43.6211 19H42.0156ZM48.4023 19L46.0117 12.7246H47.834L49.2051 16.6387L50.5703 12.7246H52.3984L50.0078 19H48.4023ZM54.5078 18.4023C54.5078 18.543 54.4824 18.6758 54.4316 18.8008C54.3809 18.9219 54.3105 19.0273 54.2207 19.1172C54.1309 19.207 54.0254 19.2773 53.9043 19.3281C53.7832 19.3828 53.6523 19.4102 53.5117 19.4102C53.375 19.4102 53.2441 19.3828 53.1191 19.3281C52.998 19.2773 52.8906 19.207 52.7969 19.1172C52.707 19.0273 52.6348 18.9219 52.5801 18.8008C52.5293 18.6758 52.5039 18.543 52.5039 18.4023C52.5039 18.2656 52.5293 18.1367 52.5801 18.0156C52.6348 17.8945 52.707 17.7891 52.7969 17.6992C52.8906 17.6094 52.998 17.5391 53.1191 17.4883C53.2441 17.4336 53.375 17.4062 53.5117 17.4062C53.6523 17.4062 53.7832 17.4336 53.9043 17.4883C54.0254 17.5391 54.1309 17.6094 54.2207 17.6992C54.3105 17.7891 54.3809 17.8945 54.4316 18.0156C54.4824 18.1367 54.5078 18.2656 54.5078 18.4023ZM57.6719 18.4023C57.6719 18.543 57.6465 18.6758 57.5957 18.8008C57.5449 18.9219 57.4746 19.0273 57.3848 19.1172C57.2949 19.207 57.1895 19.2773 57.0684 19.3281C56.9473 19.3828 56.8164 19.4102 56.6758 19.4102C56.5391 19.4102 56.4082 19.3828 56.2832 19.3281C56.1621 19.2773 56.0547 19.207 55.9609 19.1172C55.8711 19.0273 55.7988 18.9219 55.7441 18.8008C55.6934 18.6758 55.668 18.543 55.668 18.4023C55.668 18.2656 55.6934 18.1367 55.7441 18.0156C55.7988 17.8945 55.8711 17.7891 55.9609 17.6992C56.0547 17.6094 56.1621 17.5391 56.2832 17.4883C56.4082 17.4336 56.5391 17.4062 56.6758 17.4062C56.8164 17.4062 56.9473 17.4336 57.0684 17.4883C57.1895 17.5391 57.2949 17.6094 57.3848 17.6992C57.4746 17.7891 57.5449 17.8945 57.5957 18.0156C57.6465 18.1367 57.6719 18.2656 57.6719 18.4023ZM60.8359 18.4023C60.8359 18.543 60.8105 18.6758 60.7598 18.8008C60.709 18.9219 60.6387 19.0273 60.5488 19.1172C60.459 19.207 60.3535 19.2773 60.2324 19.3281C60.1113 19.3828 59.9805 19.4102 59.8398 19.4102C59.7031 19.4102 59.5723 19.3828 59.4473 19.3281C59.3262 19.2773 59.2188 19.207 59.125 19.1172C59.0352 19.0273 58.9629 18.9219 58.9082 18.8008C58.8574 18.6758 58.832 18.543 58.832 18.4023C58.832 18.2656 58.8574 18.1367 58.9082 18.0156C58.9629 17.8945 59.0352 17.7891 59.125 17.6992C59.2188 17.6094 59.3262 17.5391 59.4473 17.4883C59.5723 17.4336 59.7031 17.4062 59.8398 17.4062C59.9805 17.4062 60.1113 17.4336 60.2324 17.4883C60.3535 17.5391 60.459 17.6094 60.5488 17.6992C60.6387 17.7891 60.709 17.8945 60.7598 18.0156C60.8105 18.1367 60.8359 18.2656 60.8359 18.4023ZM65.0137 13.8906H65.8984C66.0664 13.8906 66.1953 13.8535 66.2852 13.7793C66.3789 13.7012 66.4473 13.6152 66.4902 13.5215C66.5371 13.4121 66.5645 13.2871 66.5723 13.1465V11.0781C66.5723 10.8398 66.6172 10.6191 66.707 10.416C66.7969 10.209 66.918 10.0312 67.0703 9.88281C67.2266 9.73047 67.4062 9.61328 67.6094 9.53125C67.8164 9.44531 68.0352 9.40234 68.2656 9.40234H69.9473V11.0781H68.2656V13.1816C68.2656 13.3262 68.252 13.459 68.2246 13.5801C68.1973 13.7012 68.1602 13.8125 68.1133 13.9141C68.0664 14.0117 68.0137 14.1016 67.9551 14.1836C67.8965 14.2617 67.8359 14.3301 67.7734 14.3887C67.6289 14.5332 67.4648 14.6465 67.2812 14.7285C67.4648 14.8066 67.6289 14.9219 67.7734 15.0742C67.8359 15.1406 67.8965 15.2168 67.9551 15.3027C68.0137 15.3887 68.0664 15.4883 68.1133 15.6016C68.1602 15.7109 68.1973 15.8359 68.2246 15.9766C68.252 16.1133 68.2656 16.2656 68.2656 16.4336V18.5195H69.9473V20.2012H68.2656C68.0469 20.2012 67.834 20.1582 67.627 20.0723C67.4238 19.9863 67.2441 19.8672 67.0879 19.7148C66.9316 19.5664 66.8066 19.3887 66.7129 19.1816C66.6191 18.9785 66.5723 18.7578 66.5723 18.5195V16.4336C66.5762 16.2188 66.543 16.0527 66.4727 15.9355C66.4062 15.8184 66.3301 15.7324 66.2441 15.6777C66.1426 15.6152 66.0273 15.5781 65.8984 15.5664H65.0137V13.8906ZM75.7656 15.5664H74.875C74.7461 15.5781 74.6309 15.6152 74.5293 15.6777C74.4863 15.7051 74.4434 15.7402 74.4004 15.7832C74.3613 15.8223 74.3262 15.873 74.2949 15.9355C74.2637 15.9941 74.2383 16.0645 74.2188 16.1465C74.2031 16.2285 74.1973 16.3242 74.2012 16.4336V18.5195C74.2012 18.7578 74.1543 18.9785 74.0605 19.1816C73.9668 19.3887 73.8418 19.5664 73.6855 19.7148C73.5293 19.8672 73.3477 19.9863 73.1406 20.0723C72.9375 20.1582 72.7266 20.2012 72.5078 20.2012H70.832V18.5195H72.5078V16.4336C72.5078 16.2656 72.5215 16.1133 72.5488 15.9766C72.5762 15.8359 72.6133 15.7109 72.6602 15.6016C72.707 15.4883 72.7598 15.3887 72.8184 15.3027C72.877 15.2168 72.9375 15.1406 73 15.0742C73.1445 14.9219 73.3086 14.8066 73.4922 14.7285C73.3086 14.6465 73.1445 14.5332 73 14.3887C72.9375 14.3301 72.877 14.2617 72.8184 14.1836C72.7598 14.1016 72.707 14.0117 72.6602 13.9141C72.6133 13.8125 72.5762 13.7012 72.5488 13.5801C72.5215 13.459 72.5078 13.3262 72.5078 13.1816V11.0781H70.832V9.40234H72.5078C72.7383 9.40234 72.9551 9.44531 73.1582 9.53125C73.3652 9.61328 73.5449 9.73047 73.6973 9.88281C73.8535 10.0312 73.9766 10.209 74.0664 10.416C74.1562 10.6191 74.2012 10.8398 74.2012 11.0781V13.1465C74.209 13.2871 74.2363 13.4121 74.2832 13.5215C74.3262 13.6152 74.3926 13.7012 74.4824 13.7793C74.5723 13.8535 74.7031 13.8906 74.875 13.8906H75.7656V15.5664Z" fill="#F5F5F5"/>
</svg>
